<svg xmlns="http://www.w3.org/2000/svg" viewBox="0 0 128 128" role="img" aria-label="theme-sky-blog-3 icon">
  <defs>
    <linearGradient id="bg" x1="0%" y1="0%" x2="100%" y2="100%">
      <stop offset="0%" stop-color="#dbeafe"/>
      <stop offset="45%" stop-color="#93c5fd"/>
      <stop offset="100%" stop-color="#0f172a"/>
    </linearGradient>
    <linearGradient id="glass" x1="0%" y1="0%" x2="0%" y2="100%">
      <stop offset="0%" stop-color="#ffffff" stop-opacity="0.88"/>
      <stop offset="100%" stop-color="#ffffff" stop-opacity="0.55"/>
    </linearGradient>
  </defs>
  <rect width="128" height="128" rx="30" fill="url(#bg)"/>
  <rect x="18" y="20" width="92" height="72" rx="18" fill="url(#glass)" stroke="#ffffff" stroke-opacity="0.55" stroke-width="2"/>
  <rect x="18" y="20" width="92" height="16" rx="18" fill="#ffffff" fill-opacity="0.38"/>
  <circle cx="32" cy="28" r="4.5" fill="#ff5f57"/>
  <circle cx="46" cy="28" r="4.5" fill="#febc2e"/>
  <circle cx="60" cy="28" r="4.5" fill="#28c840"/>
  <rect x="34" y="48" width="60" height="8" rx="4" fill="#0f172a" fill-opacity="0.16"/>
  <rect x="34" y="62" width="44" height="6" rx="3" fill="#0f172a" fill-opacity="0.12"/>
  <rect x="32" y="98" width="64" height="14" rx="7" fill="#ffffff" fill-opacity="0.28" stroke="#ffffff" stroke-opacity="0.3" stroke-width="1.5"/>
  <rect x="42" y="94" width="18" height="18" rx="5" fill="#0f172a" opacity="0.82"/>
  <rect x="55" y="91" width="19" height="19" rx="5" fill="#2563eb" opacity="0.92"/>
  <rect x="68" y="94" width="18" height="18" rx="5" fill="#111827" opacity="0.82"/>
</svg>
